<svg id="Layer_1" data-name="Layer 1" xmlns="http://www.w3.org/2000/svg" viewBox="0 0 657.1 449"><defs><style>.cls-1,.cls-10,.cls-2,.cls-4,.cls-5,.cls-6{fill:#c0e0ff;}.cls-1{opacity:0.05;}.cls-2{opacity:0.15;}.cls-2,.cls-5,.cls-6{isolation:isolate;}.cls-3{fill:#8ca5bf;}.cls-4{opacity:0.8;}.cls-5{opacity:0.3;}.cls-6{opacity:0.2;}.cls-7,.cls-8,.cls-9{fill:none;stroke:#c0e0ff;}.cls-7,.cls-9{stroke-width:10px;}.cls-8,.cls-9{stroke-linejoin:round;}.cls-8{stroke-width:6px;}.cls-10{opacity:0.5;}</style></defs><title>develop-for-visitors</title><rect class="cls-1" x="2" y="2" width="653.1" height="421"/><rect class="cls-2" x="84.6" y="152.21" width="79.19" height="79.19" transform="translate(-99.25 143.99) rotate(-45)"/><rect class="cls-2" x="220.9" y="140.02" width="360.65" height="98.25"/><rect class="cls-2" x="68.2" y="288.59" width="519.98" height="26.51"/><rect class="cls-2" x="68.2" y="333.59" width="519.98" height="26.51"/><rect class="cls-3" x="396.1" y="227" width="218" height="222"/><rect class="cls-4" x="409.75" y="284.24" width="46.75" height="46.75"/><rect class="cls-5" x="396.77" y="226.33" width="218" height="38.37"/><rect class="cls-6" width="657.1" height="69"/><line class="cls-7" x1="464.08" y1="289" x2="530.1" y2="289"/><line class="cls-8" x1="411.09" y1="358.16" x2="441.98" y2="358.16"/><line class="cls-8" x1="464.08" y1="301.66" x2="494.97" y2="301.66"/><line class="cls-9" x1="411.09" y1="371.5" x2="599.1" y2="371.5"/><circle class="cls-10" cx="38.77" cy="35.66" r="14.17"/><circle class="cls-10" cx="80.97" cy="35.66" r="14.17"/><circle class="cls-10" cx="124.46" cy="35.66" r="14.17"/><circle class="cls-3" cx="433.12" cy="307.61" r="16.84"/></svg>