<svg xmlns="http://www.w3.org/2000/svg" viewBox="0 0 58.55 58.55"><title>Asset 4</title><g id="Layer_2" data-name="Layer 2"><g id="Layer_1-2" data-name="Layer 1"><circle cx="29.27" cy="29.27" r="29.27" style="fill:#fff"/><path d="M23.77,44.77c13,0,20-10.73,20-20,0-.31,0-.61,0-.91a14.33,14.33,0,0,0,3.51-3.65,14.06,14.06,0,0,1-4,1.11,7.07,7.07,0,0,0,3.1-3.9,14.12,14.12,0,0,1-4.47,1.71,7.05,7.05,0,0,0-12,6.42,20,20,0,0,1-14.52-7.36,7,7,0,0,0,2.18,9.4,7,7,0,0,1-3.19-.88s0,.06,0,.09A7,7,0,0,0,20,33.67a7,7,0,0,1-3.18.12,7.05,7.05,0,0,0,6.58,4.89,14.14,14.14,0,0,1-8.75,3A14.34,14.34,0,0,1,13,41.6a19.94,19.94,0,0,0,10.8,3.16" style="fill:#4484e7"/></g></g></svg>